<?xml version="1.0" encoding="utf-8"?>
<!-- Generator: Adobe Illustrator 15.0.2, SVG Export Plug-In . SVG Version: 6.00 Build 0)  -->
<!DOCTYPE svg PUBLIC "-//W3C//DTD SVG 1.1//EN" "http://www.w3.org/Graphics/SVG/1.1/DTD/svg11.dtd">
<svg version="1.1" id="active" xmlns="http://www.w3.org/2000/svg" xmlns:xlink="http://www.w3.org/1999/xlink" x="0px" y="0px"
	 width="130px" height="40px" viewBox="0 0 130 40" enable-background="new 0 0 130 40" xml:space="preserve">
<g>
	<path fill="#808080" d="M44.123,30.932c0,0.313-0.169,0.387-0.459,0.437l-2.032,0.411c-0.072,0.022-0.314,0.072-0.411,0.072
		c-0.121,0-0.169-0.099-0.169-0.51v-4.837c-0.508,0.269-1.113,0.629-2.419,0.629c-3.144,0-4.45-2.368-4.45-6.602
		c0-4.063,1.5-6.167,4.184-6.167c1.862,0,2.636,0.798,3.12,1.233c0.024-0.218,0.532-1.233,0.895-1.233
		c0.121,0,0.242,0.048,0.363,0.072l1.79,0.604c0.121,0.048,0.29,0.146,0.29,0.291c0,0.29-0.701,0.846-0.701,3.797L44.123,30.932
		L44.123,30.932z M41.052,17.703c-0.339-0.314-0.919-0.798-1.935-0.798c-1.403,0-1.862,1.379-1.862,3.75
		c0,2.853,0.436,4.061,2.032,4.061c0.943,0,1.33-0.217,1.766-0.459L41.052,17.703L41.052,17.703z"/>
	<path fill="#808080" d="M55.391,27.062c-0.145,0.047-0.266,0.07-0.362,0.07c-0.314,0-0.508-0.46-0.774-1.427
		c-0.652,0.58-1.789,1.427-3.7,1.427c-1.331,0-3.144-0.604-3.144-3.529v-8.319c0-0.339,0.169-0.363,0.459-0.436l2.031-0.411
		c0.073,0,0.314-0.072,0.387-0.072c0.145,0,0.193,0.097,0.193,0.508v7.689c0,0.92,0.121,2.032,1.354,2.032
		c1.016,0,1.812-0.532,2.128-0.75v-8.562c0-0.339,0.17-0.363,0.46-0.436l2.031-0.411c0.072,0,0.314-0.072,0.411-0.072
		c0.121,0,0.17,0.097,0.17,0.508v7.545c0,3.41,0.459,3.217,0.459,3.771c0,0.121-0.097,0.22-0.266,0.269L55.391,27.062z"/>
	<path fill="#808080" d="M67.408,27.037c-0.098,0.023-0.219,0.097-0.314,0.097c-0.218,0-0.58-0.847-0.701-1.45
		c-0.48,0.482-1.329,1.45-3.143,1.45c-2.226,0-3.628-1.45-3.628-3.725c0-4.086,4.401-4.086,6.312-4.086v-0.75
		c0-1.088-0.191-1.79-1.718-1.79c-1.354,0-2.685,0.726-2.999,0.726c-0.121,0-0.218-0.146-0.241-0.242l-0.484-1.475
		c-0.048-0.097-0.072-0.193-0.072-0.29c0-0.557,2.395-1.137,4.257-1.137c3.022,0,4.159,1.378,4.159,3.894v4.667
		c0,2.348,0.628,2.66,0.628,3.145c0,0.098-0.097,0.171-0.218,0.219L67.408,27.037z M65.936,21.307c-0.605,0-3.411-0.193-3.411,1.936
		c0,0.943,0.677,1.645,1.596,1.645c0.896,0,1.523-0.629,1.814-0.919V21.307z"/>
	<path fill="#808080" d="M79.766,27.037c-0.098,0.023-0.219,0.097-0.313,0.097c-0.22,0-0.58-0.847-0.701-1.45
		c-0.388,0.362-1.451,1.45-3.192,1.45c-2.757,0-4.136-2.225-4.136-5.899c0-4.571,1.646-6.868,4.646-6.868
		c1.307,0,1.861,0.459,2.248,0.725v-4.958c0-0.363,0.17-0.363,0.461-0.436l2.029-0.411c0.073,0,0.291-0.073,0.34-0.073
		c0.192,0,0.242,0.097,0.242,0.508v13.204c0,2.347,0.436,2.66,0.436,3.146c0,0.097-0.098,0.17-0.219,0.218L79.766,27.037z
		 M78.312,17.267c-0.217-0.121-0.629-0.483-1.645-0.483c-1.812,0-2.177,1.354-2.177,4.039c0,2.733,0.459,3.893,2.03,3.893
		c1.088,0,1.5-0.53,1.789-0.846L78.312,17.267L78.312,17.267z"/>
	<path fill="#808080" d="M93.621,25.439c0.048,0.072,0.072,0.17,0.072,0.268c0,0.629-2.42,1.427-4.33,1.427
		c-3.191,0-5.418-1.812-5.418-6.263c0-3.846,2.057-6.506,5.297-6.506c4.111,0,4.838,3.676,4.838,6.603
		c0,0.458-0.098,0.604-0.557,0.604h-6.506c0,1.354,0.387,3.022,2.659,3.022c1.741,0,2.732-0.8,3.07-0.8
		c0.121,0,0.219,0.098,0.267,0.193L93.621,25.439z M90.816,19.323c0-0.991-0.072-2.708-1.742-2.708
		c-1.887,0-1.982,2.032-2.057,2.708H90.816z"/>
	<path fill="#808080" d="M99.812,26.384c0,0.269-0.049,0.341-0.34,0.341h-2.395c-0.291,0-0.338-0.072-0.338-0.341v-7.303
		c0-2.66-0.629-3.096-0.629-3.652c0-0.097,0.097-0.169,0.217-0.218l1.839-0.75c0.097-0.024,0.218-0.097,0.313-0.097
		c0.289,0,0.772,1.088,0.896,1.91c0.46-0.556,1.354-1.91,2.999-1.91c0.701,0,1.402,0.242,1.402,0.556
		c0,0.097-0.023,0.193-0.049,0.242l-0.75,2.032c-0.023,0.072-0.098,0.217-0.193,0.217c-0.146,0-0.58-0.266-1.137-0.266
		c-0.75,0-1.522,0.822-1.838,1.161L99.812,26.384L99.812,26.384z"/>
	<path fill="#808080" d="M114.854,26.384c0,0.269-0.049,0.341-0.338,0.341h-2.396c-0.289,0-0.338-0.072-0.338-0.341v-7.448
		c0-0.919-0.121-2.032-1.354-2.032c-1.018,0-1.814,0.702-2.129,0.992v8.488c0,0.269-0.048,0.341-0.339,0.341h-2.394
		c-0.291,0-0.34-0.072-0.34-0.341v-7.303c0-3.41-0.461-3.217-0.461-3.773c0-0.121,0.098-0.218,0.268-0.266l1.838-0.604
		c0.146-0.048,0.268-0.072,0.363-0.072c0.312,0,0.508,0.532,0.772,1.668c0.701-0.629,1.79-1.668,3.7-1.668
		c1.329,0,3.145,0.604,3.145,3.531L114.854,26.384L114.854,26.384z"/>
	<path fill="#808080" d="M122.809,27.134c-3.266,0-5.248-2.489-5.248-6.384c0-3.894,1.982-6.385,5.248-6.385
		c3.24,0,5.248,2.491,5.248,6.385C128.057,24.645,126.074,27.134,122.809,27.134z M124.791,20.75c0-2.25-0.314-3.966-1.982-3.966
		c-1.67,0-1.981,1.717-1.981,3.966s0.289,3.965,1.981,3.965S124.791,23.021,124.791,20.75z"/>
</g>
<path fill="#808080" d="M27.474,11.117l-13-7c-0.03-0.017-0.064-0.023-0.097-0.037c-0.012-0.005-0.023-0.011-0.035-0.016
	c-0.011-0.004-0.02-0.012-0.03-0.015c-0.004-0.002-0.007-0.005-0.011-0.006s-0.007-0.001-0.011-0.002
	c-0.013-0.004-0.026-0.007-0.04-0.01c-0.038-0.01-0.077-0.013-0.117-0.018C14.089,4.009,14.045,4,14,4s-0.088,0.009-0.132,0.015
	c-0.04,0.005-0.079,0.007-0.118,0.018c-0.014,0.003-0.026,0.006-0.04,0.01c-0.003,0.001-0.007,0.001-0.011,0.002
	c-0.005,0.001-0.008,0.005-0.013,0.006c-0.014,0.005-0.026,0.014-0.039,0.021c-0.008,0.003-0.016,0.007-0.023,0.01
	c-0.032,0.013-0.066,0.021-0.098,0.037l-13,7C0.202,11.292,0,11.63,0,11.998v19c0,0.362,0.196,0.696,0.512,0.873
	c0.152,0.085,0.32,0.127,0.488,0.127c0.182,0,0.363-0.05,0.524-0.148L6,29.096v3.902c0,0.417,0.258,0.79,0.648,0.937
	C6.763,33.978,6.882,33.998,7,33.998c0.282,0,0.559-0.12,0.753-0.342L14,26.517l6.247,7.14c0.194,0.222,0.471,0.342,0.753,0.342
	c0.118,0,0.237-0.021,0.352-0.063C21.742,33.788,22,33.415,22,32.998v-3.902l4.476,2.754c0.161,0.099,0.343,0.148,0.524,0.148
	c0.168,0,0.336-0.042,0.488-0.127C27.804,31.694,28,31.36,28,30.998v-19C28,11.63,27.798,11.292,27.474,11.117z M6.181,14.425
	C6.063,14.593,6,14.793,6,14.998v11.749l-4,2.461V12.596l8.766-4.721L6.181,14.425z M13,24.622l-5,5.715V15.313l5-7.144V24.622z
	 M20,30.337l-5-5.715V8.17l5,7.144V30.337z M26,29.208l-4-2.461V14.998c0-0.205-0.063-0.405-0.181-0.573l-4.585-6.55L26,12.596
	V29.208z"/>
</svg>
